# xmcd CD database file
#
# Track frame offsets:
#	150
#	22175
#	42150
#	59295
#	78835
#	96927
#	115775
#	132912
#	154035
#	173542
#
# Disc length: 2562 seconds
#
# Revision: 0
# Processed by: cddbd v1.5.1PL0 Copyright (c) Steve Scherf et al.
# Submitted via: CDex 1.51
#
DISCID=750a000a
DTITLE=山本達彦 - FACES(Tatsuhiko Singles)
DYEAR=1900
DGENRE=JPop
TTITLE0=夢より苦しく
TTITLE1=ロンリー・ジャーニー
TTITLE2=噂の台詞（ダイアローグ）
TTITLE3=Missing Love
TTITLE4=夏の愛人
TTITLE5=夜を抱きしめて
TTITLE6=密室のTANGO
TTITLE7=優しい朝
TTITLE8=STARDUST MERMAID
TTITLE9=密会のHIGH NOON
EXTD=
EXTT0=
EXTT1=
EXTT2=
EXTT3=
EXTT4=
EXTT5=
EXTT6=
EXTT7=
EXTT8=
EXTT9=
PLAYORDER=
